<mxfile host="Electron" agent="Mozilla/5.0 (Macintosh; Intel Mac OS X 10_15_7) AppleWebKit/537.36 (KHTML, like Gecko) draw.io/28.0.6 Chrome/138.0.7204.100 Electron/37.2.3 Safari/537.36" version="28.0.6">
  <diagram name="Page-1" id="f7sV7Ayp__aZJ-y9HbyH">
    <mxGraphModel dx="976" dy="752" grid="1" gridSize="10" guides="1" tooltips="1" connect="1" arrows="1" fold="1" page="1" pageScale="1" pageWidth="827" pageHeight="1169" math="0" shadow="0">
      <root>
        <mxCell id="0" />
        <mxCell id="1" parent="0" />
        <mxCell id="_9KlXMsfJ8kh_YsEA66y-1" value="DATA FLOW DIAGRAM" style="rounded=1;whiteSpace=wrap;html=1;fontSize=25;" parent="1" vertex="1">
          <mxGeometry x="40" y="40" width="320" height="40" as="geometry" />
        </mxCell>
        <mxCell id="_9KlXMsfJ8kh_YsEA66y-2" value="" style="rounded=0;whiteSpace=wrap;html=1;fillStyle=auto;" parent="1" vertex="1">
          <mxGeometry x="40" y="240" width="120" height="480" as="geometry" />
        </mxCell>
        <mxCell id="_9KlXMsfJ8kh_YsEA66y-3" value="SOURCES" style="rounded=1;whiteSpace=wrap;html=1;fontSize=20;strokeColor=none;" parent="1" vertex="1">
          <mxGeometry x="40" y="200" width="120" height="40" as="geometry" />
        </mxCell>
        <mxCell id="_9KlXMsfJ8kh_YsEA66y-15" style="edgeStyle=orthogonalEdgeStyle;rounded=0;orthogonalLoop=1;jettySize=auto;html=1;entryX=0;entryY=0.5;entryDx=0;entryDy=0;" parent="1" source="_9KlXMsfJ8kh_YsEA66y-4" target="_9KlXMsfJ8kh_YsEA66y-9" edge="1">
          <mxGeometry relative="1" as="geometry" />
        </mxCell>
        <mxCell id="_9KlXMsfJ8kh_YsEA66y-16" style="edgeStyle=orthogonalEdgeStyle;rounded=0;orthogonalLoop=1;jettySize=auto;html=1;entryX=0;entryY=0.75;entryDx=0;entryDy=0;" parent="1" source="_9KlXMsfJ8kh_YsEA66y-4" target="_9KlXMsfJ8kh_YsEA66y-11" edge="1">
          <mxGeometry relative="1" as="geometry" />
        </mxCell>
        <mxCell id="_9KlXMsfJ8kh_YsEA66y-17" style="edgeStyle=orthogonalEdgeStyle;rounded=0;orthogonalLoop=1;jettySize=auto;html=1;entryX=0;entryY=0.5;entryDx=0;entryDy=0;" parent="1" source="_9KlXMsfJ8kh_YsEA66y-4" target="_9KlXMsfJ8kh_YsEA66y-10" edge="1">
          <mxGeometry relative="1" as="geometry" />
        </mxCell>
        <mxCell id="_9KlXMsfJ8kh_YsEA66y-4" value="&lt;font style=&quot;font-size: 14px;&quot;&gt;&lt;b&gt;CRM&lt;/b&gt;&lt;/font&gt;" style="sketch=0;pointerEvents=1;shadow=0;dashed=0;html=1;strokeColor=none;labelPosition=center;verticalLabelPosition=bottom;verticalAlign=top;outlineConnect=0;align=center;shape=mxgraph.office.concepts.folder;fillColor=#2072B8;" parent="1" vertex="1">
          <mxGeometry x="72.5" y="335" width="55" height="50" as="geometry" />
        </mxCell>
        <mxCell id="_9KlXMsfJ8kh_YsEA66y-6" value="" style="rounded=1;whiteSpace=wrap;html=1;fillStyle=hatch;glass=0;shadow=0;" parent="1" vertex="1">
          <mxGeometry x="260" y="260" width="160" height="460" as="geometry" />
        </mxCell>
        <mxCell id="_9KlXMsfJ8kh_YsEA66y-18" style="edgeStyle=orthogonalEdgeStyle;rounded=0;orthogonalLoop=1;jettySize=auto;html=1;entryX=0;entryY=0.5;entryDx=0;entryDy=0;" parent="1" source="_9KlXMsfJ8kh_YsEA66y-7" target="_9KlXMsfJ8kh_YsEA66y-12" edge="1">
          <mxGeometry relative="1" as="geometry" />
        </mxCell>
        <mxCell id="_9KlXMsfJ8kh_YsEA66y-19" style="edgeStyle=orthogonalEdgeStyle;rounded=0;orthogonalLoop=1;jettySize=auto;html=1;entryX=0;entryY=0.5;entryDx=0;entryDy=0;" parent="1" source="_9KlXMsfJ8kh_YsEA66y-7" target="_9KlXMsfJ8kh_YsEA66y-13" edge="1">
          <mxGeometry relative="1" as="geometry" />
        </mxCell>
        <mxCell id="_9KlXMsfJ8kh_YsEA66y-20" style="edgeStyle=orthogonalEdgeStyle;rounded=0;orthogonalLoop=1;jettySize=auto;html=1;entryX=0;entryY=0.5;entryDx=0;entryDy=0;" parent="1" source="_9KlXMsfJ8kh_YsEA66y-7" target="_9KlXMsfJ8kh_YsEA66y-14" edge="1">
          <mxGeometry relative="1" as="geometry" />
        </mxCell>
        <mxCell id="_9KlXMsfJ8kh_YsEA66y-7" value="&lt;font style=&quot;font-size: 14px;&quot;&gt;&lt;b&gt;ERP&lt;/b&gt;&lt;/font&gt;" style="sketch=0;pointerEvents=1;shadow=0;dashed=0;html=1;strokeColor=none;labelPosition=center;verticalLabelPosition=bottom;verticalAlign=top;outlineConnect=0;align=center;shape=mxgraph.office.concepts.folder;fillColor=#2072B8;" parent="1" vertex="1">
          <mxGeometry x="72.5" y="575" width="55" height="50" as="geometry" />
        </mxCell>
        <mxCell id="_9KlXMsfJ8kh_YsEA66y-8" value="BRONZE LAYER" style="rounded=1;whiteSpace=wrap;html=1;fillColor=#B05800;fontColor=#1A1A1A;fontSize=18;fontStyle=1;gradientColor=none;" parent="1" vertex="1">
          <mxGeometry x="260" y="200" width="160" height="40" as="geometry" />
        </mxCell>
        <mxCell id="KpGRDUDF97SThx4iHwNa-9" style="edgeStyle=orthogonalEdgeStyle;rounded=0;orthogonalLoop=1;jettySize=auto;html=1;entryX=0;entryY=0.5;entryDx=0;entryDy=0;" parent="1" source="_9KlXMsfJ8kh_YsEA66y-9" target="KpGRDUDF97SThx4iHwNa-3" edge="1">
          <mxGeometry relative="1" as="geometry" />
        </mxCell>
        <mxCell id="_9KlXMsfJ8kh_YsEA66y-9" value="crm_sales_details" style="rounded=1;whiteSpace=wrap;html=1;fillColor=#B05800;fontColor=#1A1A1A;fontSize=14;fontStyle=1;gradientColor=none;" parent="1" vertex="1">
          <mxGeometry x="270" y="280" width="140" height="40" as="geometry" />
        </mxCell>
        <mxCell id="KpGRDUDF97SThx4iHwNa-10" style="edgeStyle=orthogonalEdgeStyle;rounded=0;orthogonalLoop=1;jettySize=auto;html=1;entryX=0;entryY=0.5;entryDx=0;entryDy=0;" parent="1" source="_9KlXMsfJ8kh_YsEA66y-10" target="KpGRDUDF97SThx4iHwNa-4" edge="1">
          <mxGeometry relative="1" as="geometry" />
        </mxCell>
        <mxCell id="_9KlXMsfJ8kh_YsEA66y-10" value="crm_cust_info" style="rounded=1;whiteSpace=wrap;html=1;fillColor=#B05800;fontColor=#1A1A1A;fontSize=14;fontStyle=1;gradientColor=none;" parent="1" vertex="1">
          <mxGeometry x="270" y="340" width="140" height="40" as="geometry" />
        </mxCell>
        <mxCell id="KpGRDUDF97SThx4iHwNa-11" style="edgeStyle=orthogonalEdgeStyle;rounded=0;orthogonalLoop=1;jettySize=auto;html=1;entryX=0;entryY=0.5;entryDx=0;entryDy=0;" parent="1" source="_9KlXMsfJ8kh_YsEA66y-11" target="KpGRDUDF97SThx4iHwNa-5" edge="1">
          <mxGeometry relative="1" as="geometry" />
        </mxCell>
        <mxCell id="_9KlXMsfJ8kh_YsEA66y-11" value="crm_prd_info" style="rounded=1;whiteSpace=wrap;html=1;fillColor=#B05800;fontColor=#1A1A1A;fontSize=14;fontStyle=1;gradientColor=none;" parent="1" vertex="1">
          <mxGeometry x="270" y="400" width="140" height="40" as="geometry" />
        </mxCell>
        <mxCell id="KpGRDUDF97SThx4iHwNa-12" style="edgeStyle=orthogonalEdgeStyle;rounded=0;orthogonalLoop=1;jettySize=auto;html=1;entryX=0;entryY=0.5;entryDx=0;entryDy=0;" parent="1" source="_9KlXMsfJ8kh_YsEA66y-12" target="KpGRDUDF97SThx4iHwNa-6" edge="1">
          <mxGeometry relative="1" as="geometry" />
        </mxCell>
        <mxCell id="_9KlXMsfJ8kh_YsEA66y-12" value="erp_cust_az12" style="rounded=1;whiteSpace=wrap;html=1;fillColor=#B05800;fontColor=#1A1A1A;fontSize=14;fontStyle=1;gradientColor=none;" parent="1" vertex="1">
          <mxGeometry x="270" y="520" width="140" height="40" as="geometry" />
        </mxCell>
        <mxCell id="KpGRDUDF97SThx4iHwNa-13" style="edgeStyle=orthogonalEdgeStyle;rounded=0;orthogonalLoop=1;jettySize=auto;html=1;entryX=0;entryY=0.5;entryDx=0;entryDy=0;" parent="1" source="_9KlXMsfJ8kh_YsEA66y-13" target="KpGRDUDF97SThx4iHwNa-7" edge="1">
          <mxGeometry relative="1" as="geometry" />
        </mxCell>
        <mxCell id="_9KlXMsfJ8kh_YsEA66y-13" value="erp_loc_a101" style="rounded=1;whiteSpace=wrap;html=1;fillColor=#B05800;fontColor=#1A1A1A;fontSize=14;fontStyle=1;gradientColor=none;" parent="1" vertex="1">
          <mxGeometry x="270" y="580" width="140" height="40" as="geometry" />
        </mxCell>
        <mxCell id="KpGRDUDF97SThx4iHwNa-14" style="edgeStyle=orthogonalEdgeStyle;rounded=0;orthogonalLoop=1;jettySize=auto;html=1;entryX=0;entryY=0.5;entryDx=0;entryDy=0;" parent="1" source="_9KlXMsfJ8kh_YsEA66y-14" target="KpGRDUDF97SThx4iHwNa-8" edge="1">
          <mxGeometry relative="1" as="geometry" />
        </mxCell>
        <mxCell id="_9KlXMsfJ8kh_YsEA66y-14" value="erp_px_cat_g1v2" style="rounded=1;whiteSpace=wrap;html=1;fillColor=#B05800;fontColor=#1A1A1A;fontSize=14;fontStyle=1;gradientColor=none;" parent="1" vertex="1">
          <mxGeometry x="270" y="640" width="140" height="40" as="geometry" />
        </mxCell>
        <mxCell id="KpGRDUDF97SThx4iHwNa-1" value="" style="rounded=1;whiteSpace=wrap;html=1;fillStyle=hatch;glass=0;shadow=0;fillColor=#B8B8B8;" parent="1" vertex="1">
          <mxGeometry x="500" y="260" width="160" height="460" as="geometry" />
        </mxCell>
        <mxCell id="KpGRDUDF97SThx4iHwNa-2" value="SILVER LAYER" style="rounded=1;whiteSpace=wrap;html=1;fillColor=#B8B8B8;fontColor=#1A1A1A;fontSize=18;fontStyle=1;gradientColor=none;" parent="1" vertex="1">
          <mxGeometry x="500" y="200" width="160" height="40" as="geometry" />
        </mxCell>
        <mxCell id="KpGRDUDF97SThx4iHwNa-3" value="crm_sales_details" style="rounded=1;whiteSpace=wrap;html=1;fillColor=#B8B8B8;fontColor=#1A1A1A;fontSize=14;fontStyle=1;gradientColor=none;" parent="1" vertex="1">
          <mxGeometry x="510" y="280" width="140" height="40" as="geometry" />
        </mxCell>
        <mxCell id="KpGRDUDF97SThx4iHwNa-4" value="crm_cust_info" style="rounded=1;whiteSpace=wrap;html=1;fillColor=#B8B8B8;fontColor=#1A1A1A;fontSize=14;fontStyle=1;gradientColor=none;" parent="1" vertex="1">
          <mxGeometry x="510" y="340" width="140" height="40" as="geometry" />
        </mxCell>
        <mxCell id="KpGRDUDF97SThx4iHwNa-5" value="crm_prd_info" style="rounded=1;whiteSpace=wrap;html=1;fillColor=#B8B8B8;fontColor=#1A1A1A;fontSize=14;fontStyle=1;gradientColor=none;" parent="1" vertex="1">
          <mxGeometry x="510" y="400" width="140" height="40" as="geometry" />
        </mxCell>
        <mxCell id="KpGRDUDF97SThx4iHwNa-6" value="erp_cust_az12" style="rounded=1;whiteSpace=wrap;html=1;fillColor=#B8B8B8;fontColor=#1A1A1A;fontSize=14;fontStyle=1;gradientColor=none;" parent="1" vertex="1">
          <mxGeometry x="510" y="520" width="140" height="40" as="geometry" />
        </mxCell>
        <mxCell id="KpGRDUDF97SThx4iHwNa-7" value="erp_loc_a101" style="rounded=1;whiteSpace=wrap;html=1;fillColor=#B8B8B8;fontColor=#1A1A1A;fontSize=14;fontStyle=1;gradientColor=none;" parent="1" vertex="1">
          <mxGeometry x="510" y="580" width="140" height="40" as="geometry" />
        </mxCell>
        <mxCell id="KpGRDUDF97SThx4iHwNa-8" value="erp_px_cat_g1v2" style="rounded=1;whiteSpace=wrap;html=1;fillColor=#B8B8B8;fontColor=#1A1A1A;fontSize=14;fontStyle=1;gradientColor=none;" parent="1" vertex="1">
          <mxGeometry x="510" y="640" width="140" height="40" as="geometry" />
        </mxCell>
        <mxCell id="3Y5TjdQNZ2_dZzcfkaU--1" value="" style="rounded=1;whiteSpace=wrap;html=1;fillStyle=hatch;glass=0;shadow=0;fillColor=#FFD966;" vertex="1" parent="1">
          <mxGeometry x="740" y="260" width="160" height="460" as="geometry" />
        </mxCell>
        <mxCell id="3Y5TjdQNZ2_dZzcfkaU--2" value="GOLD LAYER" style="rounded=1;whiteSpace=wrap;html=1;fillColor=#FFD966;fontColor=#1A1A1A;fontSize=18;fontStyle=1;gradientColor=none;" vertex="1" parent="1">
          <mxGeometry x="740" y="200" width="160" height="40" as="geometry" />
        </mxCell>
        <mxCell id="3Y5TjdQNZ2_dZzcfkaU--3" value="fact_sales" style="rounded=1;whiteSpace=wrap;html=1;fillColor=#FFD966;fontColor=#1A1A1A;fontSize=14;fontStyle=1;gradientColor=none;" vertex="1" parent="1">
          <mxGeometry x="750" y="330" width="140" height="40" as="geometry" />
        </mxCell>
        <mxCell id="3Y5TjdQNZ2_dZzcfkaU--4" value="dim_products" style="rounded=1;whiteSpace=wrap;html=1;fillColor=#FFD966;fontColor=#1A1A1A;fontSize=14;fontStyle=1;gradientColor=none;" vertex="1" parent="1">
          <mxGeometry x="750" y="575" width="140" height="40" as="geometry" />
        </mxCell>
        <mxCell id="3Y5TjdQNZ2_dZzcfkaU--5" value="dim_customers" style="rounded=1;whiteSpace=wrap;html=1;fillColor=#FFD966;fontColor=#1A1A1A;fontSize=14;fontStyle=1;gradientColor=none;" vertex="1" parent="1">
          <mxGeometry x="750" y="470" width="140" height="40" as="geometry" />
        </mxCell>
        <mxCell id="3Y5TjdQNZ2_dZzcfkaU--9" value="" style="endArrow=classic;html=1;rounded=0;entryX=0;entryY=0.5;entryDx=0;entryDy=0;exitX=1;exitY=0.5;exitDx=0;exitDy=0;" edge="1" parent="1" source="KpGRDUDF97SThx4iHwNa-3" target="3Y5TjdQNZ2_dZzcfkaU--3">
          <mxGeometry width="50" height="50" relative="1" as="geometry">
            <mxPoint x="670" y="350" as="sourcePoint" />
            <mxPoint x="720" y="300" as="targetPoint" />
          </mxGeometry>
        </mxCell>
        <mxCell id="3Y5TjdQNZ2_dZzcfkaU--10" value="" style="endArrow=classic;html=1;rounded=0;exitX=1;exitY=0.5;exitDx=0;exitDy=0;entryX=0;entryY=0.5;entryDx=0;entryDy=0;" edge="1" parent="1" source="KpGRDUDF97SThx4iHwNa-4" target="3Y5TjdQNZ2_dZzcfkaU--5">
          <mxGeometry width="50" height="50" relative="1" as="geometry">
            <mxPoint x="680" y="490" as="sourcePoint" />
            <mxPoint x="730" y="440" as="targetPoint" />
          </mxGeometry>
        </mxCell>
        <mxCell id="3Y5TjdQNZ2_dZzcfkaU--11" value="" style="endArrow=classic;html=1;rounded=0;exitX=1;exitY=0.75;exitDx=0;exitDy=0;entryX=0;entryY=0.5;entryDx=0;entryDy=0;" edge="1" parent="1" source="KpGRDUDF97SThx4iHwNa-6" target="3Y5TjdQNZ2_dZzcfkaU--5">
          <mxGeometry width="50" height="50" relative="1" as="geometry">
            <mxPoint x="670" y="540" as="sourcePoint" />
            <mxPoint x="720" y="490" as="targetPoint" />
          </mxGeometry>
        </mxCell>
        <mxCell id="3Y5TjdQNZ2_dZzcfkaU--12" value="" style="endArrow=classic;html=1;rounded=0;exitX=1;exitY=0.5;exitDx=0;exitDy=0;entryX=0;entryY=0.5;entryDx=0;entryDy=0;" edge="1" parent="1" source="KpGRDUDF97SThx4iHwNa-7" target="3Y5TjdQNZ2_dZzcfkaU--5">
          <mxGeometry width="50" height="50" relative="1" as="geometry">
            <mxPoint x="670" y="585" as="sourcePoint" />
            <mxPoint x="720" y="535" as="targetPoint" />
          </mxGeometry>
        </mxCell>
        <mxCell id="3Y5TjdQNZ2_dZzcfkaU--13" value="" style="endArrow=classic;html=1;rounded=0;entryX=0;entryY=0.5;entryDx=0;entryDy=0;exitX=1;exitY=0.5;exitDx=0;exitDy=0;" edge="1" parent="1" source="KpGRDUDF97SThx4iHwNa-5" target="3Y5TjdQNZ2_dZzcfkaU--4">
          <mxGeometry width="50" height="50" relative="1" as="geometry">
            <mxPoint x="670" y="510" as="sourcePoint" />
            <mxPoint x="720" y="460" as="targetPoint" />
          </mxGeometry>
        </mxCell>
        <mxCell id="3Y5TjdQNZ2_dZzcfkaU--14" value="" style="endArrow=classic;html=1;rounded=0;entryX=0;entryY=0.5;entryDx=0;entryDy=0;exitX=1;exitY=0.5;exitDx=0;exitDy=0;" edge="1" parent="1" source="KpGRDUDF97SThx4iHwNa-8" target="3Y5TjdQNZ2_dZzcfkaU--4">
          <mxGeometry width="50" height="50" relative="1" as="geometry">
            <mxPoint x="670" y="660" as="sourcePoint" />
            <mxPoint x="720" y="610" as="targetPoint" />
          </mxGeometry>
        </mxCell>
      </root>
    </mxGraphModel>
  </diagram>
</mxfile>
